<svg width="21" height="21" viewBox="0 0 21 21" fill="none" xmlns="http://www.w3.org/2000/svg">
<path d="M19.9381 17.9736L14.9759 13.0113C16.1744 11.3388 16.7 9.27652 16.4481 7.2343C16.1963 5.19208 15.1854 3.31932 13.6164 1.98808C12.0473 0.656837 10.0349 -0.0354814 7.97896 0.0486624C5.92299 0.132806 3.9739 0.987254 2.51889 2.44226C1.06388 3.89727 0.209432 5.84636 0.125288 7.90233C0.0411444 9.95831 0.733462 11.9707 2.06471 13.5397C3.39595 15.1088 5.2687 16.1196 7.31092 16.3715C9.35314 16.6234 11.4154 16.0978 13.088 14.8992L18.0502 19.8615C18.3077 20.072 18.6343 20.1794 18.9665 20.1628C19.2987 20.1461 19.6129 20.0067 19.8481 19.7715C20.0833 19.5363 20.2228 19.2221 20.2394 18.8899C20.256 18.5577 20.1487 18.2311 19.9381 17.9736ZM2.58846 8.258C2.58846 7.12076 2.92569 6.00905 3.55751 5.06347C4.18932 4.11789 5.08735 3.38089 6.13803 2.94569C7.1887 2.51049 8.34484 2.39662 9.46023 2.61848C10.5756 2.84035 11.6002 3.38798 12.4043 4.19213C13.2085 4.99629 13.7561 6.02084 13.978 7.13623C14.1998 8.25162 14.086 9.40775 13.6508 10.4584C13.2156 11.5091 12.4786 12.4071 11.533 13.0389C10.5874 13.6708 9.4757 14.008 8.33846 14.008C6.81346 14.008 5.35093 13.4022 4.27259 12.3239C3.19426 11.2455 2.58846 9.78299 2.58846 8.258Z" fill="#696969"/>
</svg>
